<svg width="68" height="27" viewBox="0 0 68 27" fill="none" xmlns="http://www.w3.org/2000/svg">
<path fill-rule="evenodd" clip-rule="evenodd" d="M19.4729 26.2557H24.724V6.10352e-05H19.4729V26.2557ZM8.67981 0.00012207C3.85369 0.00012207 0.756332 2.91504 0.756332 7.16147C0.756332 11.8158 4.38245 13.5429 7.4473 15.0026C9.69054 16.071 11.6331 16.9962 11.6331 18.8212C11.6331 20.4406 10.5166 21.4122 8.64379 21.4122C6.3748 21.4122 4.97018 19.8648 4.28588 18.2094L0 20.2966C0.720316 22.3479 2.9533 26.1265 8.35566 26.1265C13.614 26.1265 16.7834 22.8877 16.7834 18.4613C16.7834 13.9503 13.1299 12.2493 10.0439 10.8124C7.78756 9.76188 5.83456 8.85256 5.83456 7.0895C5.83456 5.722 6.843 4.67839 8.57176 4.67839C10.7687 4.67839 11.7051 6.22582 12.2454 7.41338L16.4592 5.50608C15.8469 3.67076 13.758 0.00012207 8.67981 0.00012207ZM43.1031 26.2557H37.8519V12.6902V7.43907V6.10352e-05H43.1031V7.43907H48.3542V12.6902H43.1031V26.2557ZM33.9135 26.2556H28.6623V7.43907H33.9135V26.2556ZM49.0106 17.0662C49.0106 22.1414 53.1249 26.2557 58.2001 26.2557V21.2884C56.0915 21.2884 54.3439 19.7427 54.0286 17.7226H67.3774C67.3896 17.4736 67.3896 17.2247 67.3896 16.9758C67.3896 10.8625 64.0742 7.00149 58.2361 7.00149C52.8666 7.00149 49.0106 11.22 49.0106 16.8685C49.0106 16.9346 49.0111 17.0005 49.0122 17.0662H49.0106ZM54.4804 14.2218H61.9195C61.5853 12.351 60.1289 11.1587 58.2019 11.1587C56.2257 11.1587 54.8786 12.4489 54.4804 14.2218Z" fill="#FDFDFD"/>
<rect x="28.4435" width="5.25113" height="5.25113" fill="#FDFDFD"/>
<rect x="62.1384" y="21.0045" width="5.25113" height="5.25113" fill="#FDFDFD"/>
</svg>
