<svg width="16" height="16" viewBox="0 0 16 16" fill="none" xmlns="http://www.w3.org/2000/svg">
<path fill-rule="evenodd" clip-rule="evenodd" d="M1 3C1 1.34315 2.34315 0 4 0H12C13.6569 0 15 1.34315 15 3V13C15 14.6569 13.6569 16 12 16H4C2.34315 16 1 14.6569 1 13V3ZM4 2C3.44772 2 3 2.44772 3 3V13C3 13.5523 3.44772 14 4 14H12C12.5523 14 13 13.5523 13 13V3C13 2.44772 12.5523 2 12 2H4Z" fill="#5168EC"/>
<rect x="5" y="4" width="6" height="2" rx="1" fill="#5168EC"/>
<rect x="5" y="7" width="4" height="2" rx="1" fill="#5168EC"/>
</svg>
