<svg width="16" height="16" viewBox="0 0 16 16" fill="none" xmlns="http://www.w3.org/2000/svg">
<path fill-rule="evenodd" clip-rule="evenodd" d="M3.84492 15.6359L8.00002 13.7192L12.1551 15.6359C12.5052 15.7975 12.8987 15.5186 12.8623 15.1348L12.4091 10.3509L15.4691 6.73822C15.7113 6.45233 15.5646 6.01152 15.1994 5.92772L10.725 4.90092L8.43701 0.785925C8.24646 0.443225 7.75357 0.443225 7.56302 0.785926L5.27503 4.90092L0.8006 5.92772C0.435439 6.01152 0.288755 6.45233 0.530902 6.73822L3.59089 10.3509L3.13771 15.1348C3.10135 15.5186 3.4948 15.7975 3.84492 15.6359ZM7.16225 11.9031L5.37469 12.7277L5.58197 10.5395C5.63277 10.0033 5.46514 9.46926 5.11702 9.05826L3.64969 7.3259L5.72236 6.85025C6.27483 6.72347 6.74755 6.36822 7.023 5.87282L8.00002 4.11564L8.97703 5.87282C9.25248 6.36822 9.72521 6.72347 10.2777 6.85025L12.3503 7.3259L10.883 9.05826C10.5349 9.46926 10.3673 10.0033 10.4181 10.5395L10.6253 12.7277L8.83778 11.9031C8.30619 11.6579 7.69384 11.6579 7.16225 11.9031Z" fill="#91939D"/>
</svg>
